<svg width="20" height="20" viewBox="0 0 20 20" fill="#536387" xmlns="http://www.w3.org/2000/svg">
<path fill-rule="evenodd" clip-rule="evenodd" d="M7.40002 3.9999C7.40002 3.11625 8.11637 2.3999 9.00002 2.3999H15C15.8837 2.3999 16.6 3.11625 16.6 3.9999V12.9999C16.6 13.8836 15.8837 14.5999 15 14.5999H13C12.7791 14.5999 12.6 14.779 12.6 14.9999V15.9999C12.6 16.8836 11.8837 17.5999 11 17.5999H5.00002C4.11637 17.5999 3.40002 16.8836 3.40002 15.9999V6.9999C3.40002 6.11625 4.11637 5.3999 5.00002 5.3999H7.40002V3.9999ZM11 6.5999C11.2209 6.5999 11.4 6.77899 11.4 6.9999V11.9999C11.4 12.3313 11.6687 12.5999 12 12.5999C12.3314 12.5999 12.6 12.3313 12.6 11.9999V6.9999C12.6 6.11625 11.8837 5.3999 11 5.3999H8.60002V3.9999C8.60002 3.77899 8.77911 3.5999 9.00002 3.5999H15C15.2209 3.5999 15.4 3.77899 15.4 3.9999V12.9999C15.4 13.2208 15.2209 13.3999 15 13.3999H13C12.1164 13.3999 11.4 14.1162 11.4 14.9999V15.9999C11.4 16.2208 11.2209 16.3999 11 16.3999H5.00002C4.77911 16.3999 4.60002 16.2208 4.60002 15.9999V6.9999C4.60002 6.77899 4.77911 6.5999 5.00002 6.5999H11Z" fill="#CCCCCC"/>
</svg>
