<svg width="20" height="20" viewBox="0 0 20 20" fill="#536387" xmlns="http://www.w3.org/2000/svg">
<path fill-rule="evenodd" clip-rule="evenodd" d="M5.00002 6.3999C5.3314 6.3999 5.60002 6.66853 5.60002 6.9999V15.9999C5.60002 16.2208 5.77911 16.3999 6.00002 16.3999H14C14.2209 16.3999 14.4 16.2208 14.4 15.9999V6.9999C14.4 6.66853 14.6687 6.3999 15 6.3999C15.3314 6.3999 15.6 6.66853 15.6 6.9999V15.9999C15.6 16.8836 14.8837 17.5999 14 17.5999H6.00002C5.11637 17.5999 4.40002 16.8836 4.40002 15.9999V6.9999C4.40002 6.66853 4.66865 6.3999 5.00002 6.3999Z" fill="#CCCCCC"/>
<path fill-rule="evenodd" clip-rule="evenodd" d="M3.40002 4.9999C3.40002 4.66853 3.66865 4.3999 4.00002 4.3999H16C16.3314 4.3999 16.6 4.66853 16.6 4.9999C16.6 5.33127 16.3314 5.5999 16 5.5999H4.00002C3.66865 5.5999 3.40002 5.33127 3.40002 4.9999Z" fill="#CCCCCC"/>
<path fill-rule="evenodd" clip-rule="evenodd" d="M10 3.5999C9.22683 3.5999 8.60002 4.2267 8.60002 4.9999C8.60002 5.33127 8.3314 5.5999 8.00002 5.5999C7.66865 5.5999 7.40002 5.33127 7.40002 4.9999C7.40002 3.56396 8.56408 2.3999 10 2.3999C11.436 2.3999 12.6 3.56396 12.6 4.9999C12.6 5.33127 12.3314 5.5999 12 5.5999C11.6687 5.5999 11.4 5.33127 11.4 4.9999C11.4 4.2267 10.7732 3.5999 10 3.5999Z" fill="#CCCCCC"/>
<path fill-rule="evenodd" clip-rule="evenodd" d="M8.00002 8.3999C8.3314 8.3999 8.60002 8.66853 8.60002 8.9999V13.9999C8.60002 14.3313 8.3314 14.5999 8.00002 14.5999C7.66865 14.5999 7.40002 14.3313 7.40002 13.9999V8.9999C7.40002 8.66853 7.66865 8.3999 8.00002 8.3999Z" fill="#CCCCCC"/>
<path fill-rule="evenodd" clip-rule="evenodd" d="M12 8.3999C12.3314 8.3999 12.6 8.66853 12.6 8.9999V13.9999C12.6 14.3313 12.3314 14.5999 12 14.5999C11.6687 14.5999 11.4 14.3313 11.4 13.9999V8.9999C11.4 8.66853 11.6687 8.3999 12 8.3999Z" fill="#CCCCCC"/>
</svg>
